<svg width="22" height="22" viewBox="0 0 22 22" fill="none" xmlns="http://www.w3.org/2000/svg">
<path d="M16 1H6C3.23858 1 1 3.23858 1 6V16C1 18.7614 3.23858 21 6 21H16C18.7614 21 21 18.7614 21 16V6C21 3.23858 18.7614 1 16 1Z" stroke="#555555" stroke-width="1.5" stroke-linecap="round" stroke-linejoin="round"/>
<path d="M14.9997 10.37C15.1231 11.2022 14.981 12.0522 14.5935 12.799C14.206 13.5458 13.5929 14.1514 12.8413 14.5297C12.0898 14.9079 11.2382 15.0396 10.4075 14.9059C9.57683 14.7723 8.80947 14.3801 8.21455 13.7852C7.61962 13.1902 7.22744 12.4229 7.09377 11.5922C6.96011 10.7615 7.09177 9.90989 7.47003 9.15837C7.84829 8.40685 8.45389 7.79374 9.20069 7.40624C9.94749 7.01874 10.7975 6.87658 11.6297 7C12.4786 7.12588 13.2646 7.52146 13.8714 8.1283C14.4782 8.73515 14.8738 9.52107 14.9997 10.37Z" stroke="#555555" stroke-width="1.5" stroke-linecap="round" stroke-linejoin="round"/>
<path d="M16.5 5.5H16.51" stroke="#555555" stroke-width="1.5" stroke-linecap="round" stroke-linejoin="round"/>
</svg>
