<svg width="109" height="20" viewBox="0 0 109 20" fill="none" xmlns="http://www.w3.org/2000/svg">
<path d="M21.3253 10.125C21.3253 9.25 21.1753 7.25 19.9003 5.225C17.2503 1.025 12.4003 0.799999 10.9503 0.799999C6.87529 0.774999 2.85029 2.575 1.20029 6.525C0.525293 8.1 0.475293 9.5 0.475293 10.15C0.475293 10.975 0.550293 12.775 1.62529 14.7C4.15029 19.225 9.40029 19.475 10.8253 19.475C12.2003 19.475 16.4503 19.275 19.3003 15.85C21.1253 13.65 21.3253 11.125 21.3253 10.125ZM19.4003 10.025C19.4003 11.125 19.2503 14.2 16.5003 16.275C14.3253 17.9 11.8003 17.975 10.9253 17.975C9.67529 17.975 4.67529 17.725 2.90029 13.25C2.37529 11.95 2.32529 10.7 2.32529 10.225C2.32529 6.7 4.35029 4.7 5.37529 3.95C7.30029 2.525 9.67529 2.35 10.4003 2.325C12.9753 2.225 14.8753 3.025 15.7253 3.475C18.2253 4.825 18.9753 7.15 19.2003 8.125C19.4253 9.025 19.4003 9.625 19.4003 10.025ZM40.5251 19V17.525H27.6751V1.35H25.9251V19H40.5251ZM62.8751 10.125C62.8751 9.25 62.7251 7.25 61.4501 5.225C58.8001 1.025 53.9501 0.799999 52.5001 0.799999C48.4251 0.774999 44.4001 2.575 42.7501 6.525C42.0751 8.1 42.0251 9.5 42.0251 10.15C42.0251 10.975 42.1001 12.775 43.1751 14.7C45.7001 19.225 50.9501 19.475 52.3751 19.475C53.7501 19.475 58.0001 19.275 60.8501 15.85C62.6751 13.65 62.8751 11.125 62.8751 10.125ZM60.9501 10.025C60.9501 11.125 60.8001 14.2 58.0501 16.275C55.8751 17.9 53.3501 17.975 52.4751 17.975C51.2251 17.975 46.2251 17.725 44.4501 13.25C43.9251 11.95 43.8751 10.7 43.8751 10.225C43.8751 6.7 45.9001 4.7 46.9251 3.95C48.8501 2.525 51.2251 2.35 51.9501 2.325C54.5251 2.225 56.4251 3.025 57.2751 3.475C59.7751 4.825 60.5251 7.15 60.7501 8.125C60.9751 9.025 60.9501 9.625 60.9501 10.025ZM86.5999 19L79.4999 11.125C81.0499 11.05 82.6499 10.975 83.9749 10C85.6499 8.75 85.7749 6.9 85.7749 6.2C85.7749 5.725 85.7249 4.5 84.9999 3.4C83.7499 1.5 81.6749 1.4 80.9499 1.375C80.5249 1.35 80.0999 1.35 79.6749 1.35H67.4749V19H69.1749V11.125H77.2499L84.2249 19H86.5999ZM83.9249 6.1C83.9249 6.9 83.6499 7.55 83.5249 7.8C82.7749 9.275 81.2999 9.525 79.8249 9.6C79.4249 9.625 79.0499 9.625 78.6499 9.625H69.1749V2.8H79.7249C80.7249 2.8 81.6999 2.8 82.5749 3.375C83.7999 4.2 83.9249 5.675 83.9249 6.1ZM108.425 19L99.5249 1.35H97.6249L88.9249 19H90.6999L92.9499 14.425H104.325L106.6 19H108.425ZM103.625 13.025H93.6249L98.5749 2.925L103.625 13.025Z" fill="black"/>
</svg>
