<svg width="28" height="28" viewBox="0 0 28 28" fill="none" xmlns="http://www.w3.org/2000/svg">
<path fill-rule="evenodd" clip-rule="evenodd" d="M19.3705 7.64011C17.925 6.26146 15.9959 5.51041 14 5.54127C10.3476 5.54127 7.24565 8.00533 6.13963 11.3233V11.3234C5.55319 13.0621 5.55319 14.9449 6.13963 16.6836H6.14476C7.25591 19.9965 10.3527 22.4606 14.0051 22.4606C15.8905 22.4606 17.5091 21.9784 18.7635 21.1266V21.1231C20.2399 20.1457 21.2482 18.6076 21.562 16.8689H14V11.4777H27.2052C27.3698 12.414 27.447 13.3708 27.447 14.3225C27.447 18.5806 25.9252 22.1807 23.2774 24.619L23.2802 24.6212C20.9601 26.7612 17.7758 28.0009 14 28.0009C8.70658 28.0009 3.86587 25.0173 1.48924 20.2897C-0.496417 16.3338 -0.496412 11.6732 1.48925 7.71731H1.48928L1.48924 7.71728C3.86587 2.98459 8.70658 0.000943456 14 0.000943456C17.4775 -0.0402105 20.8366 1.26642 23.3676 3.64305L19.3705 7.64011Z" fill="black"/>
</svg>
