<svg width="1405" height="332" viewBox="0 0 1405 332" fill="none" xmlns="http://www.w3.org/2000/svg">
<rect width="332" height="332" rx="73" fill="black"/>
<path d="M256 131.456C256 142.694 253.418 153.011 248.254 162.407C243.09 171.619 235.16 179.081 224.464 184.792C213.767 190.503 200.488 193.359 184.628 193.359H155.305V263H108V69H184.628C200.12 69 213.214 71.6714 223.91 77.0142C234.607 82.3571 242.629 89.7265 247.978 99.1225C253.326 108.519 256 119.296 256 131.456ZM181.032 155.775C190.069 155.775 196.8 153.656 201.226 149.419C205.652 145.181 207.865 139.194 207.865 131.456C207.865 123.718 205.652 117.73 201.226 113.493C196.8 109.255 190.069 107.137 181.032 107.137H155.305V155.775H181.032Z" fill="white"/>
<path d="M497.82 140.42C497.82 147.513 496.11 154.163 492.69 160.37C489.397 166.577 484.14 171.58 476.92 175.38C469.827 179.18 460.833 181.08 449.94 181.08H427.71V232H401.11V99.38H449.94C460.2 99.38 468.94 101.153 476.16 104.7C483.38 108.247 488.763 113.123 492.31 119.33C495.983 125.537 497.82 132.567 497.82 140.42ZM448.8 159.61C456.147 159.61 461.593 157.963 465.14 154.67C468.687 151.25 470.46 146.5 470.46 140.42C470.46 127.5 463.24 121.04 448.8 121.04H427.71V159.61H448.8ZM543.306 143.08C546.726 137.507 551.159 133.137 556.606 129.97C562.179 126.803 568.512 125.22 575.606 125.22V153.15H568.576C560.216 153.15 553.882 155.113 549.576 159.04C545.396 162.967 543.306 169.807 543.306 179.56V232H516.706V126.74H543.306V143.08ZM640.262 233.71C630.129 233.71 621.009 231.493 612.902 227.06C604.795 222.5 598.399 216.103 593.712 207.87C589.152 199.637 586.872 190.137 586.872 179.37C586.872 168.603 589.215 159.103 593.902 150.87C598.715 142.637 605.239 136.303 613.472 131.87C621.705 127.31 630.889 125.03 641.022 125.03C651.155 125.03 660.339 127.31 668.572 131.87C676.805 136.303 683.265 142.637 687.952 150.87C692.765 159.103 695.172 168.603 695.172 179.37C695.172 190.137 692.702 199.637 687.762 207.87C682.949 216.103 676.362 222.5 668.002 227.06C659.769 231.493 650.522 233.71 640.262 233.71ZM640.262 210.53C645.075 210.53 649.572 209.39 653.752 207.11C658.059 204.703 661.479 201.157 664.012 196.47C666.545 191.783 667.812 186.083 667.812 179.37C667.812 169.363 665.152 161.7 659.832 156.38C654.639 150.933 648.242 148.21 640.642 148.21C633.042 148.21 626.645 150.933 621.452 156.38C616.385 161.7 613.852 169.363 613.852 179.37C613.852 189.377 616.322 197.103 621.262 202.55C626.329 207.87 632.662 210.53 640.262 210.53ZM762.944 148.59H744.514V232H717.534V148.59H705.564V126.74H717.534V121.42C717.534 108.5 721.208 99 728.554 92.92C735.901 86.84 746.984 83.99 761.804 84.37V106.79C755.344 106.663 750.848 107.74 748.314 110.02C745.781 112.3 744.514 116.417 744.514 122.37V126.74H762.944V148.59ZM793.672 114.2C788.986 114.2 785.059 112.743 781.892 109.83C778.852 106.79 777.332 103.053 777.332 98.62C777.332 94.1867 778.852 90.5133 781.892 87.6C785.059 84.56 788.986 83.04 793.672 83.04C798.359 83.04 802.222 84.56 805.262 87.6C808.429 90.5133 810.012 94.1867 810.012 98.62C810.012 103.053 808.429 106.79 805.262 109.83C802.222 112.743 798.359 114.2 793.672 114.2ZM806.782 126.74V232H780.182V126.74H806.782ZM859.663 91.4V232H833.063V91.4H859.663ZM983.794 177.09C983.794 180.89 983.541 184.31 983.034 187.35H906.084C906.717 194.95 909.377 200.903 914.064 205.21C918.751 209.517 924.514 211.67 931.354 211.67C941.234 211.67 948.264 207.427 952.444 198.94H981.134C978.094 209.073 972.267 217.433 963.654 224.02C955.041 230.48 944.464 233.71 931.924 233.71C921.791 233.71 912.671 231.493 904.564 227.06C896.584 222.5 890.314 216.103 885.754 207.87C881.321 199.637 879.104 190.137 879.104 179.37C879.104 168.477 881.321 158.913 885.754 150.68C890.187 142.447 896.394 136.113 904.374 131.68C912.354 127.247 921.537 125.03 931.924 125.03C941.931 125.03 950.861 127.183 958.714 131.49C966.694 135.797 972.837 141.94 977.144 149.92C981.577 157.773 983.794 166.83 983.794 177.09ZM956.244 169.49C956.117 162.65 953.647 157.203 948.834 153.15C944.021 148.97 938.131 146.88 931.164 146.88C924.577 146.88 919.004 148.907 914.444 152.96C910.011 156.887 907.287 162.397 906.274 169.49H956.244ZM1029.81 91.4V232H1003.21V91.4H1029.81ZM1049.25 178.99C1049.25 168.35 1051.34 158.913 1055.52 150.68C1059.83 142.447 1065.59 136.113 1072.81 131.68C1080.16 127.247 1088.33 125.03 1097.32 125.03C1105.17 125.03 1112.01 126.613 1117.84 129.78C1123.79 132.947 1128.54 136.937 1132.09 141.75V126.74H1158.88V232H1132.09V216.61C1128.67 221.55 1123.92 225.667 1117.84 228.96C1111.89 232.127 1104.98 233.71 1097.13 233.71C1088.26 233.71 1080.16 231.43 1072.81 226.87C1065.59 222.31 1059.83 215.913 1055.52 207.68C1051.34 199.32 1049.25 189.757 1049.25 178.99ZM1132.09 179.37C1132.09 172.91 1130.82 167.4 1128.29 162.84C1125.76 158.153 1122.34 154.607 1118.03 152.2C1113.72 149.667 1109.1 148.4 1104.16 148.4C1099.22 148.4 1094.66 149.603 1090.48 152.01C1086.3 154.417 1082.88 157.963 1080.22 162.65C1077.69 167.21 1076.42 172.657 1076.42 178.99C1076.42 185.323 1077.69 190.897 1080.22 195.71C1082.88 200.397 1086.3 204.007 1090.48 206.54C1094.79 209.073 1099.35 210.34 1104.16 210.34C1109.1 210.34 1113.72 209.137 1118.03 206.73C1122.34 204.197 1125.76 200.65 1128.29 196.09C1130.82 191.403 1132.09 185.83 1132.09 179.37ZM1211.46 142.13C1214.88 137.063 1219.57 132.947 1225.52 129.78C1231.6 126.613 1238.5 125.03 1246.23 125.03C1255.22 125.03 1263.33 127.247 1270.55 131.68C1277.9 136.113 1283.66 142.447 1287.84 150.68C1292.15 158.787 1294.3 168.223 1294.3 178.99C1294.3 189.757 1292.15 199.32 1287.84 207.68C1283.66 215.913 1277.9 222.31 1270.55 226.87C1263.33 231.43 1255.22 233.71 1246.23 233.71C1238.38 233.71 1231.47 232.19 1225.52 229.15C1219.69 225.983 1215.01 221.93 1211.46 216.99V232H1184.86V91.4H1211.46V142.13ZM1267.13 178.99C1267.13 172.657 1265.8 167.21 1263.14 162.65C1260.61 157.963 1257.19 154.417 1252.88 152.01C1248.7 149.603 1244.14 148.4 1239.2 148.4C1234.39 148.4 1229.83 149.667 1225.52 152.2C1221.34 154.607 1217.92 158.153 1215.26 162.84C1212.73 167.527 1211.46 173.037 1211.46 179.37C1211.46 185.703 1212.73 191.213 1215.26 195.9C1217.92 200.587 1221.34 204.197 1225.52 206.73C1229.83 209.137 1234.39 210.34 1239.2 210.34C1244.14 210.34 1248.7 209.073 1252.88 206.54C1257.19 204.007 1260.61 200.397 1263.14 195.71C1265.8 191.023 1267.13 185.45 1267.13 178.99ZM1353.91 233.71C1345.3 233.71 1337.57 232.19 1330.73 229.15C1323.89 225.983 1318.44 221.74 1314.39 216.42C1310.46 211.1 1308.31 205.21 1307.93 198.75H1334.72C1335.23 202.803 1337.19 206.16 1340.61 208.82C1344.16 211.48 1348.53 212.81 1353.72 212.81C1358.79 212.81 1362.71 211.797 1365.5 209.77C1368.41 207.743 1369.87 205.147 1369.87 201.98C1369.87 198.56 1368.1 196.027 1364.55 194.38C1361.13 192.607 1355.62 190.707 1348.02 188.68C1340.17 186.78 1333.71 184.817 1328.64 182.79C1323.7 180.763 1319.39 177.66 1315.72 173.48C1312.17 169.3 1310.4 163.663 1310.4 156.57C1310.4 150.743 1312.05 145.423 1315.34 140.61C1318.76 135.797 1323.57 131.997 1329.78 129.21C1336.11 126.423 1343.52 125.03 1352.01 125.03C1364.55 125.03 1374.56 128.197 1382.03 134.53C1389.5 140.737 1393.62 149.16 1394.38 159.8H1368.92C1368.54 155.62 1366.77 152.327 1363.6 149.92C1360.56 147.387 1356.44 146.12 1351.25 146.12C1346.44 146.12 1342.7 147.007 1340.04 148.78C1337.51 150.553 1336.24 153.023 1336.24 156.19C1336.24 159.737 1338.01 162.46 1341.56 164.36C1345.11 166.133 1350.62 167.97 1358.09 169.87C1365.69 171.77 1371.96 173.733 1376.9 175.76C1381.84 177.787 1386.08 180.953 1389.63 185.26C1393.3 189.44 1395.2 195.013 1395.33 201.98C1395.33 208.06 1393.62 213.507 1390.2 218.32C1386.91 223.133 1382.09 226.933 1375.76 229.72C1369.55 232.38 1362.27 233.71 1353.91 233.71Z" fill="black"/>
</svg>
