<svg width="332" height="332" viewBox="0 0 332 332" fill="none" xmlns="http://www.w3.org/2000/svg">
<rect width="332" height="332" rx="73" fill="black"/>
<path d="M256 131.456C256 142.694 253.418 153.011 248.254 162.407C243.09 171.619 235.16 179.081 224.464 184.792C213.767 190.503 200.488 193.359 184.628 193.359H155.305V263H108V69H184.628C200.12 69 213.214 71.6714 223.91 77.0142C234.607 82.3571 242.629 89.7265 247.978 99.1225C253.326 108.519 256 119.296 256 131.456ZM181.032 155.775C190.069 155.775 196.8 153.656 201.226 149.419C205.652 145.181 207.865 139.194 207.865 131.456C207.865 123.718 205.652 117.73 201.226 113.493C196.8 109.255 190.069 107.137 181.032 107.137H155.305V155.775H181.032Z" fill="white"/>
</svg>
